<?xml version="1.0" standalone="no"?><!-- Generator: Gravit.io --><svg xmlns="http://www.w3.org/2000/svg" xmlns:xlink="http://www.w3.org/1999/xlink" style="isolation:isolate" viewBox="389 191 578.5 501.805" width="578.5" height="501.805"><path d=" M 665.451 395.875 Q 583.907 596.597 696.168 692.805 Q 754.491 692.65 803.677 692.805 Q 704.842 609.734 747.363 467.548 Q 961.395 448.654 967.5 288.367 Q 967.191 191.29 819.035 191.097 Q 670.88 190.903 532.345 191.097 L 389 692.805 L 491.389 692.805 L 583.54 370.278 L 573.301 370.278 L 588.659 278.128 Q 589.856 252.333 644.973 252.53 Q 700.091 252.728 803.677 252.53 Q 835.746 252.762 854.872 267.889 C 873.997 283.015 873.804 290.82 875.35 303.725 C 783.007 341.609 760.869 323.431 680.81 406.114 Q 679.278 407.696 665.451 395.875 Z " fill="rgb(35,31,32)"/></svg>